<svg version="1.1" viewBox="0.0 0.0 960.0 960.0" fill="none" stroke="none" stroke-linecap="square" stroke-miterlimit="10" xmlns:xlink="http://www.w3.org/1999/xlink" xmlns="http://www.w3.org/2000/svg"><clipPath id="p.0"><path d="m0 0l960.0 0l0 960.0l-960.0 0l0 -960.0z" clip-rule="nonzero"/></clipPath><g clip-path="url(#p.0)"><path fill="#000000" fill-opacity="0.0" d="m0 0l960.0 0l0 960.0l-960.0 0z" fill-rule="evenodd"/><path fill="#6aa84f" d="m48.0 480.0l0 0c0 -238.587 193.413 -432.0 432.0 -432.0l0 0c114.57355 0 224.4544 45.514153 305.47015 126.52988c81.015686 81.01572 126.52985 190.8966 126.52985 305.47012l0 0c0 238.58704 -193.41296 432.0 -432.0 432.0l0 0c-238.587 0 -432.0 -193.41296 -432.0 -432.0z" fill-rule="evenodd"/><path stroke="#000000" stroke-width="1.0" stroke-linejoin="round" stroke-linecap="butt" d="m48.0 480.0l0 0c0 -238.587 193.413 -432.0 432.0 -432.0l0 0c114.57355 0 224.4544 45.514153 305.47015 126.52988c81.015686 81.01572 126.52985 190.8966 126.52985 305.47012l0 0c0 238.58704 -193.41296 432.0 -432.0 432.0l0 0c-238.587 0 -432.0 -193.41296 -432.0 -432.0z" fill-rule="evenodd"/><path fill="#000000" d="m271.26996 275.76376l0 78.053894l-63.7128 0l0 82.6062l63.7128 0l0 247.629l84.53833 0l0 -247.629l71.22522 0l0 -82.6062l-71.22522 0l0 -78.053894z" fill-rule="evenodd"/><path stroke="#000000" stroke-width="1.0" stroke-linejoin="round" stroke-linecap="butt" d="m271.26996 275.76376l0 78.053894l-63.7128 0l0 82.6062l63.7128 0l0 247.629l84.53833 0l0 -247.629l71.22522 0l0 -82.6062l-71.22522 0l0 -78.053894z" fill-rule="evenodd"/><path fill="#000000" d="m406.56503 353.84515l139.978 330.23523l59.24341 0l146.9198 -330.23523l-88.72247 0l-84.63342 199.07056l-81.40021 -199.07056z" fill-rule="evenodd"/><path stroke="#000000" stroke-width="1.0" stroke-linejoin="round" stroke-linecap="butt" d="m406.56503 353.84515l139.978 330.23523l59.24341 0l146.9198 -330.23523l-88.72247 0l-84.63342 199.07056l-81.40021 -199.07056z" fill-rule="evenodd"/><path fill="#000000" d="m0 480.0l0 0c0 -265.09668 214.90332 -480.0 480.0 -480.0l0 0c127.303894 0 249.3938 50.571285 339.41125 140.58875c90.017456 90.017456 140.58875 212.10733 140.58875 339.41125l0 0c0 265.09668 -214.90332 480.0 -480.0 480.0l0 0c-265.09668 0 -480.0 -214.90332 -480.0 -480.0zm86.304 0l0 0c0 217.43231 176.26369 393.69598 393.69598 393.69598c217.43231 0 393.69598 -176.26367 393.69598 -393.69598l0 0c0 -217.43231 -176.26367 -393.69598 -393.69598 -393.69598l0 0c-217.43231 0 -393.69598 176.26369 -393.69598 393.69598z" fill-rule="evenodd"/></g></svg>